<svg width="90" height="14" viewBox="0 0 90 14" fill="none" xmlns="http://www.w3.org/2000/svg">
<path d="M0.414 13L5.022 0.399999H7.614L12.222 13H9.774L8.766 10.084H3.852L2.826 13H0.414ZM4.482 8.284H8.136L6.3 3.046L4.482 8.284ZM13.7911 13V4.072H15.8251L16.0051 5.584C16.2811 5.056 16.6771 4.636 17.1931 4.324C17.7211 4.012 18.3391 3.856 19.0471 3.856C20.1511 3.856 21.0091 4.204 21.6211 4.9C22.2331 5.596 22.5391 6.616 22.5391 7.96V13H20.2351V8.176C20.2351 7.408 20.0791 6.82 19.7671 6.412C19.4551 6.004 18.9691 5.8 18.3091 5.8C17.6611 5.8 17.1271 6.028 16.7071 6.484C16.2991 6.94 16.0951 7.576 16.0951 8.392V13H13.7911ZM28.7203 13C27.7843 13 27.0343 12.772 26.4703 12.316C25.9063 11.86 25.6243 11.05 25.6243 9.886V5.998H24.0943V4.072H25.6243L25.8943 1.678H27.9283V4.072H30.3403V5.998H27.9283V9.904C27.9283 10.336 28.0183 10.636 28.1983 10.804C28.3903 10.96 28.7143 11.038 29.1703 11.038H30.2863V13H28.7203ZM33.5604 2.686C33.1404 2.686 32.7924 2.56 32.5164 2.308C32.2524 2.056 32.1204 1.738 32.1204 1.354C32.1204 0.97 32.2524 0.657999 32.5164 0.417999C32.7924 0.165999 33.1404 0.0399995 33.5604 0.0399995C33.9804 0.0399995 34.3224 0.165999 34.5864 0.417999C34.8624 0.657999 35.0004 0.97 35.0004 1.354C35.0004 1.738 34.8624 2.056 34.5864 2.308C34.3224 2.56 33.9804 2.686 33.5604 2.686ZM32.4084 13V4.072H34.7124V13H32.4084Z" fill="black" fill-opacity="0.48"/>
<path d="M42.6793 13.216C41.4913 13.216 40.4533 12.946 39.5653 12.406C38.6773 11.866 37.9873 11.116 37.4953 10.156C37.0033 9.184 36.7573 8.056 36.7573 6.772C36.7573 5.476 37.0093 4.336 37.5133 3.352C38.0293 2.356 38.7553 1.582 39.6913 1.03C40.6393 0.466 41.7613 0.184 43.0573 0.184C44.5333 0.184 45.7573 0.538 46.7293 1.246C47.7013 1.954 48.3313 2.932 48.6193 4.18H46.0453C45.8533 3.592 45.5053 3.136 45.0013 2.812C44.4973 2.476 43.8493 2.308 43.0573 2.308C41.7973 2.308 40.8253 2.71 40.1413 3.514C39.4573 4.306 39.1153 5.398 39.1153 6.79C39.1153 8.182 39.4513 9.262 40.1233 10.03C40.8073 10.786 41.7313 11.164 42.8953 11.164C44.0353 11.164 44.8933 10.858 45.4693 10.246C46.0573 9.622 46.4113 8.806 46.5313 7.798H43.3453V6.07H48.8533V13H46.7293L46.5493 11.344C46.1413 11.944 45.6313 12.406 45.0193 12.73C44.4073 13.054 43.6273 13.216 42.6793 13.216ZM54.1171 13.216C53.3491 13.216 52.7191 13.096 52.2271 12.856C51.7351 12.604 51.3691 12.274 51.1291 11.866C50.8891 11.458 50.7691 11.008 50.7691 10.516C50.7691 9.688 51.0931 9.016 51.7411 8.5C52.3891 7.984 53.3611 7.726 54.6571 7.726H56.9251V7.51C56.9251 6.898 56.7511 6.448 56.4031 6.16C56.0551 5.872 55.6231 5.728 55.1071 5.728C54.6391 5.728 54.2311 5.842 53.8831 6.07C53.5351 6.286 53.3191 6.61 53.2351 7.042H50.9851C51.0451 6.394 51.2611 5.83 51.6331 5.35C52.0171 4.87 52.5091 4.504 53.1091 4.252C53.7091 3.988 54.3811 3.856 55.1251 3.856C56.3971 3.856 57.3991 4.174 58.1311 4.81C58.8631 5.446 59.2291 6.346 59.2291 7.51V13H57.2671L57.0511 11.56C56.7871 12.04 56.4151 12.436 55.9351 12.748C55.4671 13.06 54.8611 13.216 54.1171 13.216ZM54.6391 11.416C55.2991 11.416 55.8091 11.2 56.1691 10.768C56.5411 10.336 56.7751 9.802 56.8711 9.166H54.9091C54.2971 9.166 53.8591 9.28 53.5951 9.508C53.3311 9.724 53.1991 9.994 53.1991 10.318C53.1991 10.666 53.3311 10.936 53.5951 11.128C53.8591 11.32 54.2071 11.416 54.6391 11.416ZM66.7198 13.216C66.0478 13.216 65.4598 13.09 64.9558 12.838C64.4518 12.586 64.0438 12.232 63.7318 11.776L63.4798 13H61.4278V0.0399995H63.7318V5.35C64.0198 4.954 64.3978 4.606 64.8658 4.306C65.3458 4.006 65.9638 3.856 66.7198 3.856C67.5598 3.856 68.3098 4.06 68.9698 4.468C69.6298 4.876 70.1518 5.434 70.5358 6.142C70.9198 6.85 71.1118 7.654 71.1118 8.554C71.1118 9.454 70.9198 10.258 70.5358 10.966C70.1518 11.662 69.6298 12.214 68.9698 12.622C68.3098 13.018 67.5598 13.216 66.7198 13.216ZM66.2338 11.2C66.9658 11.2 67.5718 10.954 68.0518 10.462C68.5318 9.97 68.7718 9.334 68.7718 8.554C68.7718 7.774 68.5318 7.132 68.0518 6.628C67.5718 6.124 66.9658 5.872 66.2338 5.872C65.4898 5.872 64.8778 6.124 64.3978 6.628C63.9298 7.12 63.6958 7.756 63.6958 8.536C63.6958 9.316 63.9298 9.958 64.3978 10.462C64.8778 10.954 65.4898 11.2 66.2338 11.2ZM76.518 13.216C75.402 13.216 74.538 12.868 73.926 12.172C73.326 11.476 73.026 10.456 73.026 9.112V4.072H75.312V8.896C75.312 9.664 75.468 10.252 75.78 10.66C76.092 11.068 76.584 11.272 77.256 11.272C77.892 11.272 78.414 11.044 78.822 10.588C79.242 10.132 79.452 9.496 79.452 8.68V4.072H81.756V13H79.722L79.542 11.488C79.266 12.016 78.864 12.436 78.336 12.748C77.82 13.06 77.214 13.216 76.518 13.216ZM88.0992 13C87.1632 13 86.4132 12.772 85.8492 12.316C85.2852 11.86 85.0032 11.05 85.0032 9.886V5.998H83.4732V4.072H85.0032L85.2732 1.678H87.3072V4.072H89.7192V5.998H87.3072V9.904C87.3072 10.336 87.3972 10.636 87.5772 10.804C87.7692 10.96 88.0932 11.038 88.5492 11.038H89.6652V13H88.0992Z" fill="black"/>
</svg>
