<svg width="178" height="178" viewBox="0 0 178 178" fill="none" xmlns="http://www.w3.org/2000/svg">
<circle cx="89" cy="89" r="89" fill="white"/>
<path d="M24.9321 121L48.3728 56.9043H61.5582L84.9989 121H72.546L67.4183 106.166H42.421L37.2018 121H24.9321ZM45.6258 97.0099H64.2136L54.8739 70.3644L45.6258 97.0099Z" fill="black" fill-opacity="0.48"/>
<path d="M121.274 122.099C115.231 122.099 109.951 120.725 105.434 117.978C100.916 115.231 97.4064 111.416 94.9036 106.533C92.4009 101.588 91.1495 95.8501 91.1495 89.3184C91.1495 82.7257 92.4314 76.9266 94.9952 71.921C97.6201 66.8544 101.313 62.9171 106.075 60.1091C110.897 57.2401 116.605 55.8056 123.197 55.8056C130.706 55.8056 136.932 57.6063 141.877 61.2079C146.821 64.8095 150.026 69.7845 151.491 76.133H138.397C137.42 73.1419 135.65 70.8223 133.086 69.1741C130.523 67.4649 127.226 66.6103 123.197 66.6103C116.788 66.6103 111.843 68.6552 108.364 72.7451C104.884 76.774 103.145 82.329 103.145 89.41C103.145 96.491 104.854 101.985 108.272 105.892C111.752 109.737 116.452 111.66 122.373 111.66C128.172 111.66 132.537 110.104 135.467 106.991C138.458 103.816 140.259 99.6653 140.869 94.5377H124.662V85.7474H152.681V121H141.877L140.961 112.576C138.885 115.628 136.291 117.978 133.178 119.627C130.065 121.275 126.097 122.099 121.274 122.099Z" fill="black"/>
</svg>
